<mxfile host="app.diagrams.net" agent="Mozilla/5.0 (Windows NT 10.0; Win64; x64) AppleWebKit/537.36 (KHTML, like Gecko) Chrome/130.0.0.0 Safari/537.36 Edg/130.0.0.0" version="24.8.4">
  <diagram id="C5RBs43oDa-KdzZeNtuy" name="Page-1">
    <mxGraphModel dx="992" dy="513" grid="1" gridSize="10" guides="1" tooltips="1" connect="1" arrows="1" fold="1" page="1" pageScale="1" pageWidth="1200" pageHeight="1600" math="0" shadow="0">
      <root>
        <mxCell id="WIyWlLk6GJQsqaUBKTNV-0" />
        <mxCell id="WIyWlLk6GJQsqaUBKTNV-1" parent="WIyWlLk6GJQsqaUBKTNV-0" />
        <mxCell id="U1kovIyhHzkXZq7RobD8-4" value="" style="group" vertex="1" connectable="0" parent="WIyWlLk6GJQsqaUBKTNV-1">
          <mxGeometry x="135" y="80" width="170" height="280" as="geometry" />
        </mxCell>
        <mxCell id="WIyWlLk6GJQsqaUBKTNV-2" value="" style="rounded=0;html=1;jettySize=auto;orthogonalLoop=1;fontSize=11;endArrow=block;endFill=0;endSize=8;strokeWidth=1;shadow=0;labelBackgroundColor=none;edgeStyle=orthogonalEdgeStyle;" parent="U1kovIyhHzkXZq7RobD8-4" source="WIyWlLk6GJQsqaUBKTNV-3" target="WIyWlLk6GJQsqaUBKTNV-6" edge="1">
          <mxGeometry relative="1" as="geometry" />
        </mxCell>
        <mxCell id="WIyWlLk6GJQsqaUBKTNV-3" value="Input: Grid-map, Goal, zeta" style="rounded=1;whiteSpace=wrap;html=1;fontSize=12;glass=0;strokeWidth=1;shadow=0;" parent="U1kovIyhHzkXZq7RobD8-4" vertex="1">
          <mxGeometry x="25" width="120" height="40" as="geometry" />
        </mxCell>
        <mxCell id="U1kovIyhHzkXZq7RobD8-2" value="" style="edgeStyle=orthogonalEdgeStyle;rounded=0;orthogonalLoop=1;jettySize=auto;html=1;" edge="1" parent="U1kovIyhHzkXZq7RobD8-4" source="WIyWlLk6GJQsqaUBKTNV-6" target="WIyWlLk6GJQsqaUBKTNV-12">
          <mxGeometry relative="1" as="geometry" />
        </mxCell>
        <mxCell id="WIyWlLk6GJQsqaUBKTNV-6" value="For cell i in Grid-map" style="rhombus;whiteSpace=wrap;html=1;shadow=0;fontFamily=Helvetica;fontSize=12;align=center;strokeWidth=1;spacing=6;spacingTop=-4;" parent="U1kovIyhHzkXZq7RobD8-4" vertex="1">
          <mxGeometry x="40" y="60" width="90" height="90" as="geometry" />
        </mxCell>
        <mxCell id="WIyWlLk6GJQsqaUBKTNV-11" value="Return Attraction map" style="rounded=1;whiteSpace=wrap;html=1;fontSize=12;glass=0;strokeWidth=1;shadow=0;" parent="U1kovIyhHzkXZq7RobD8-4" vertex="1">
          <mxGeometry x="25" y="240" width="120" height="40" as="geometry" />
        </mxCell>
        <mxCell id="U1kovIyhHzkXZq7RobD8-3" style="edgeStyle=orthogonalEdgeStyle;rounded=0;orthogonalLoop=1;jettySize=auto;html=1;" edge="1" parent="U1kovIyhHzkXZq7RobD8-4" source="WIyWlLk6GJQsqaUBKTNV-12" target="WIyWlLk6GJQsqaUBKTNV-11">
          <mxGeometry relative="1" as="geometry" />
        </mxCell>
        <mxCell id="WIyWlLk6GJQsqaUBKTNV-12" value="U(i) = 0.5*zeta*distance(goal,i)^2" style="rounded=1;whiteSpace=wrap;html=1;fontSize=12;glass=0;strokeWidth=1;shadow=0;" parent="U1kovIyhHzkXZq7RobD8-4" vertex="1">
          <mxGeometry y="170" width="170" height="40" as="geometry" />
        </mxCell>
        <mxCell id="U1kovIyhHzkXZq7RobD8-82" value="" style="group" vertex="1" connectable="0" parent="WIyWlLk6GJQsqaUBKTNV-1">
          <mxGeometry x="820" y="130" width="360" height="510" as="geometry" />
        </mxCell>
        <mxCell id="U1kovIyhHzkXZq7RobD8-69" value="" style="edgeStyle=orthogonalEdgeStyle;rounded=0;orthogonalLoop=1;jettySize=auto;html=1;" edge="1" parent="U1kovIyhHzkXZq7RobD8-82" source="U1kovIyhHzkXZq7RobD8-58" target="U1kovIyhHzkXZq7RobD8-68">
          <mxGeometry relative="1" as="geometry" />
        </mxCell>
        <mxCell id="U1kovIyhHzkXZq7RobD8-58" value="Input: Grid-map, connectivity, Q, eta" style="rounded=1;whiteSpace=wrap;html=1;fontSize=12;glass=0;strokeWidth=1;shadow=0;" vertex="1" parent="U1kovIyhHzkXZq7RobD8-82">
          <mxGeometry x="105" width="120" height="40" as="geometry" />
        </mxCell>
        <mxCell id="U1kovIyhHzkXZq7RobD8-72" value="" style="edgeStyle=orthogonalEdgeStyle;rounded=0;orthogonalLoop=1;jettySize=auto;html=1;" edge="1" parent="U1kovIyhHzkXZq7RobD8-82" source="U1kovIyhHzkXZq7RobD8-60" target="U1kovIyhHzkXZq7RobD8-71">
          <mxGeometry relative="1" as="geometry" />
        </mxCell>
        <mxCell id="U1kovIyhHzkXZq7RobD8-60" value="For cell i in Grid-map" style="rhombus;whiteSpace=wrap;html=1;shadow=0;fontFamily=Helvetica;fontSize=12;align=center;strokeWidth=1;spacing=6;spacingTop=-4;" vertex="1" parent="U1kovIyhHzkXZq7RobD8-82">
          <mxGeometry x="90" y="130" width="150" height="70" as="geometry" />
        </mxCell>
        <mxCell id="U1kovIyhHzkXZq7RobD8-61" value="Return Attraction map" style="rounded=1;whiteSpace=wrap;html=1;fontSize=12;glass=0;strokeWidth=1;shadow=0;" vertex="1" parent="U1kovIyhHzkXZq7RobD8-82">
          <mxGeometry x="105" y="470" width="120" height="40" as="geometry" />
        </mxCell>
        <mxCell id="U1kovIyhHzkXZq7RobD8-81" style="edgeStyle=orthogonalEdgeStyle;rounded=0;orthogonalLoop=1;jettySize=auto;html=1;entryX=0.5;entryY=0;entryDx=0;entryDy=0;" edge="1" parent="U1kovIyhHzkXZq7RobD8-82" source="U1kovIyhHzkXZq7RobD8-63" target="U1kovIyhHzkXZq7RobD8-61">
          <mxGeometry relative="1" as="geometry">
            <Array as="points">
              <mxPoint x="240" y="440" />
              <mxPoint x="165" y="440" />
            </Array>
          </mxGeometry>
        </mxCell>
        <mxCell id="U1kovIyhHzkXZq7RobD8-63" value="U(i) = 0.5*eta*(1/distance-map(i) - 1/Q)**2" style="rounded=1;whiteSpace=wrap;html=1;fontSize=12;glass=0;strokeWidth=1;shadow=0;" vertex="1" parent="U1kovIyhHzkXZq7RobD8-82">
          <mxGeometry x="120" y="360" width="240" height="40" as="geometry" />
        </mxCell>
        <mxCell id="U1kovIyhHzkXZq7RobD8-70" value="" style="edgeStyle=orthogonalEdgeStyle;rounded=0;orthogonalLoop=1;jettySize=auto;html=1;" edge="1" parent="U1kovIyhHzkXZq7RobD8-82" source="U1kovIyhHzkXZq7RobD8-68" target="U1kovIyhHzkXZq7RobD8-60">
          <mxGeometry relative="1" as="geometry" />
        </mxCell>
        <mxCell id="U1kovIyhHzkXZq7RobD8-68" value="Run brushfire algorithm to get distance-map" style="rounded=1;whiteSpace=wrap;html=1;fontSize=12;glass=0;strokeWidth=1;shadow=0;" vertex="1" parent="U1kovIyhHzkXZq7RobD8-82">
          <mxGeometry x="105" y="70" width="120" height="40" as="geometry" />
        </mxCell>
        <mxCell id="U1kovIyhHzkXZq7RobD8-73" value="" style="edgeStyle=orthogonalEdgeStyle;rounded=0;orthogonalLoop=1;jettySize=auto;html=1;" edge="1" parent="U1kovIyhHzkXZq7RobD8-82" source="U1kovIyhHzkXZq7RobD8-71" target="U1kovIyhHzkXZq7RobD8-63">
          <mxGeometry relative="1" as="geometry">
            <Array as="points">
              <mxPoint x="240" y="265" />
            </Array>
          </mxGeometry>
        </mxCell>
        <mxCell id="U1kovIyhHzkXZq7RobD8-74" value="Yes" style="edgeLabel;html=1;align=center;verticalAlign=middle;resizable=0;points=[];" vertex="1" connectable="0" parent="U1kovIyhHzkXZq7RobD8-73">
          <mxGeometry x="-0.0832" y="-1" relative="1" as="geometry">
            <mxPoint as="offset" />
          </mxGeometry>
        </mxCell>
        <mxCell id="U1kovIyhHzkXZq7RobD8-78" style="edgeStyle=orthogonalEdgeStyle;rounded=0;orthogonalLoop=1;jettySize=auto;html=1;entryX=0.5;entryY=0;entryDx=0;entryDy=0;" edge="1" parent="U1kovIyhHzkXZq7RobD8-82" source="U1kovIyhHzkXZq7RobD8-71" target="U1kovIyhHzkXZq7RobD8-77">
          <mxGeometry relative="1" as="geometry" />
        </mxCell>
        <mxCell id="U1kovIyhHzkXZq7RobD8-79" value="No" style="edgeLabel;html=1;align=center;verticalAlign=middle;resizable=0;points=[];" vertex="1" connectable="0" parent="U1kovIyhHzkXZq7RobD8-78">
          <mxGeometry x="0.4606" y="1" relative="1" as="geometry">
            <mxPoint as="offset" />
          </mxGeometry>
        </mxCell>
        <mxCell id="U1kovIyhHzkXZq7RobD8-71" value="if distance-map(i) &amp;lt;= Q" style="rhombus;whiteSpace=wrap;html=1;shadow=0;fontFamily=Helvetica;fontSize=12;align=center;strokeWidth=1;spacing=6;spacingTop=-4;" vertex="1" parent="U1kovIyhHzkXZq7RobD8-82">
          <mxGeometry x="120" y="220" width="90" height="90" as="geometry" />
        </mxCell>
        <mxCell id="U1kovIyhHzkXZq7RobD8-80" style="edgeStyle=orthogonalEdgeStyle;rounded=0;orthogonalLoop=1;jettySize=auto;html=1;entryX=0.5;entryY=0;entryDx=0;entryDy=0;" edge="1" parent="U1kovIyhHzkXZq7RobD8-82" source="U1kovIyhHzkXZq7RobD8-77" target="U1kovIyhHzkXZq7RobD8-61">
          <mxGeometry relative="1" as="geometry">
            <Array as="points">
              <mxPoint x="40" y="440" />
              <mxPoint x="165" y="440" />
            </Array>
          </mxGeometry>
        </mxCell>
        <mxCell id="U1kovIyhHzkXZq7RobD8-77" value="U(i) = 0" style="rounded=1;whiteSpace=wrap;html=1;fontSize=12;glass=0;strokeWidth=1;shadow=0;" vertex="1" parent="U1kovIyhHzkXZq7RobD8-82">
          <mxGeometry y="360" width="80" height="40" as="geometry" />
        </mxCell>
        <mxCell id="U1kovIyhHzkXZq7RobD8-87" value="" style="edgeStyle=orthogonalEdgeStyle;rounded=0;orthogonalLoop=1;jettySize=auto;html=1;" edge="1" parent="WIyWlLk6GJQsqaUBKTNV-1" source="U1kovIyhHzkXZq7RobD8-83" target="U1kovIyhHzkXZq7RobD8-86">
          <mxGeometry relative="1" as="geometry" />
        </mxCell>
        <mxCell id="U1kovIyhHzkXZq7RobD8-83" value="Input: Attraction-map, Repulsion-map." style="whiteSpace=wrap;html=1;" vertex="1" parent="WIyWlLk6GJQsqaUBKTNV-1">
          <mxGeometry x="810" y="710" width="120" height="60" as="geometry" />
        </mxCell>
        <mxCell id="U1kovIyhHzkXZq7RobD8-86" value="return" style="rounded=1;whiteSpace=wrap;html=1;" vertex="1" parent="WIyWlLk6GJQsqaUBKTNV-1">
          <mxGeometry x="810" y="850" width="120" height="60" as="geometry" />
        </mxCell>
        <mxCell id="U1kovIyhHzkXZq7RobD8-130" value="" style="group" vertex="1" connectable="0" parent="WIyWlLk6GJQsqaUBKTNV-1">
          <mxGeometry x="410" y="1480" width="270" height="580" as="geometry" />
        </mxCell>
        <mxCell id="U1kovIyhHzkXZq7RobD8-89" value="" style="rounded=0;html=1;jettySize=auto;orthogonalLoop=1;fontSize=11;endArrow=block;endFill=0;endSize=8;strokeWidth=1;shadow=0;labelBackgroundColor=none;edgeStyle=orthogonalEdgeStyle;entryX=0.5;entryY=0;entryDx=0;entryDy=0;" edge="1" parent="U1kovIyhHzkXZq7RobD8-130" source="U1kovIyhHzkXZq7RobD8-90" target="U1kovIyhHzkXZq7RobD8-96">
          <mxGeometry relative="1" as="geometry">
            <mxPoint x="135" y="60" as="targetPoint" />
          </mxGeometry>
        </mxCell>
        <mxCell id="U1kovIyhHzkXZq7RobD8-90" value="Input: Potential-map, q_start, Connectivity" style="rounded=1;whiteSpace=wrap;html=1;fontSize=12;glass=0;strokeWidth=1;shadow=0;" vertex="1" parent="U1kovIyhHzkXZq7RobD8-130">
          <mxGeometry x="75" width="120" height="40" as="geometry" />
        </mxCell>
        <mxCell id="U1kovIyhHzkXZq7RobD8-94" value="Check neighbor with lowest gradient" style="rounded=1;whiteSpace=wrap;html=1;fontSize=12;glass=0;strokeWidth=1;shadow=0;" vertex="1" parent="U1kovIyhHzkXZq7RobD8-130">
          <mxGeometry x="52.5" y="420" width="170" height="40" as="geometry" />
        </mxCell>
        <mxCell id="U1kovIyhHzkXZq7RobD8-114" style="edgeStyle=orthogonalEdgeStyle;rounded=0;orthogonalLoop=1;jettySize=auto;html=1;exitX=0.5;exitY=1;exitDx=0;exitDy=0;entryX=0.5;entryY=0;entryDx=0;entryDy=0;" edge="1" parent="U1kovIyhHzkXZq7RobD8-130" source="U1kovIyhHzkXZq7RobD8-96" target="U1kovIyhHzkXZq7RobD8-101">
          <mxGeometry relative="1" as="geometry" />
        </mxCell>
        <mxCell id="U1kovIyhHzkXZq7RobD8-96" value="initialize gradient to infinity" style="rounded=1;whiteSpace=wrap;html=1;" vertex="1" parent="U1kovIyhHzkXZq7RobD8-130">
          <mxGeometry x="50" y="60" width="170" height="60" as="geometry" />
        </mxCell>
        <mxCell id="U1kovIyhHzkXZq7RobD8-121" style="edgeStyle=orthogonalEdgeStyle;rounded=0;orthogonalLoop=1;jettySize=auto;html=1;exitX=0.5;exitY=1;exitDx=0;exitDy=0;entryX=0.5;entryY=0;entryDx=0;entryDy=0;" edge="1" parent="U1kovIyhHzkXZq7RobD8-130" source="U1kovIyhHzkXZq7RobD8-101" target="U1kovIyhHzkXZq7RobD8-103">
          <mxGeometry relative="1" as="geometry" />
        </mxCell>
        <mxCell id="U1kovIyhHzkXZq7RobD8-122" value="True" style="edgeLabel;html=1;align=center;verticalAlign=middle;resizable=0;points=[];" vertex="1" connectable="0" parent="U1kovIyhHzkXZq7RobD8-121">
          <mxGeometry x="-0.35" y="-3" relative="1" as="geometry">
            <mxPoint as="offset" />
          </mxGeometry>
        </mxCell>
        <mxCell id="U1kovIyhHzkXZq7RobD8-123" style="edgeStyle=orthogonalEdgeStyle;rounded=0;orthogonalLoop=1;jettySize=auto;html=1;entryX=0;entryY=0.5;entryDx=0;entryDy=0;" edge="1" parent="U1kovIyhHzkXZq7RobD8-130" source="U1kovIyhHzkXZq7RobD8-101" target="U1kovIyhHzkXZq7RobD8-112">
          <mxGeometry relative="1" as="geometry">
            <Array as="points">
              <mxPoint y="195" />
              <mxPoint y="565" />
            </Array>
          </mxGeometry>
        </mxCell>
        <mxCell id="U1kovIyhHzkXZq7RobD8-125" value="False" style="edgeLabel;html=1;align=center;verticalAlign=middle;resizable=0;points=[];" vertex="1" connectable="0" parent="U1kovIyhHzkXZq7RobD8-123">
          <mxGeometry x="-0.8473" y="-3" relative="1" as="geometry">
            <mxPoint as="offset" />
          </mxGeometry>
        </mxCell>
        <mxCell id="U1kovIyhHzkXZq7RobD8-101" value="While gradient greater than threshold" style="rhombus;whiteSpace=wrap;html=1;shadow=0;fontFamily=Helvetica;fontSize=12;align=center;strokeWidth=1;spacing=6;spacingTop=-4;" vertex="1" parent="U1kovIyhHzkXZq7RobD8-130">
          <mxGeometry x="80" y="140" width="110" height="110" as="geometry" />
        </mxCell>
        <mxCell id="U1kovIyhHzkXZq7RobD8-116" style="edgeStyle=orthogonalEdgeStyle;rounded=0;orthogonalLoop=1;jettySize=auto;html=1;exitX=0.5;exitY=1;exitDx=0;exitDy=0;entryX=0.5;entryY=0;entryDx=0;entryDy=0;" edge="1" parent="U1kovIyhHzkXZq7RobD8-130" source="U1kovIyhHzkXZq7RobD8-103" target="U1kovIyhHzkXZq7RobD8-94">
          <mxGeometry relative="1" as="geometry" />
        </mxCell>
        <mxCell id="U1kovIyhHzkXZq7RobD8-117" value="Yes" style="edgeLabel;html=1;align=center;verticalAlign=middle;resizable=0;points=[];" vertex="1" connectable="0" parent="U1kovIyhHzkXZq7RobD8-116">
          <mxGeometry x="0.0167" y="6" relative="1" as="geometry">
            <mxPoint as="offset" />
          </mxGeometry>
        </mxCell>
        <mxCell id="U1kovIyhHzkXZq7RobD8-128" style="edgeStyle=orthogonalEdgeStyle;rounded=0;orthogonalLoop=1;jettySize=auto;html=1;entryX=0;entryY=0.5;entryDx=0;entryDy=0;" edge="1" parent="U1kovIyhHzkXZq7RobD8-130" source="U1kovIyhHzkXZq7RobD8-103" target="U1kovIyhHzkXZq7RobD8-112">
          <mxGeometry relative="1" as="geometry">
            <Array as="points">
              <mxPoint x="30" y="325" />
              <mxPoint x="30" y="565" />
            </Array>
          </mxGeometry>
        </mxCell>
        <mxCell id="U1kovIyhHzkXZq7RobD8-129" value="No" style="edgeLabel;html=1;align=center;verticalAlign=middle;resizable=0;points=[];" vertex="1" connectable="0" parent="U1kovIyhHzkXZq7RobD8-128">
          <mxGeometry x="-0.8687" relative="1" as="geometry">
            <mxPoint as="offset" />
          </mxGeometry>
        </mxCell>
        <mxCell id="U1kovIyhHzkXZq7RobD8-103" value="Number of iterations &amp;lt; max_iters" style="rhombus;whiteSpace=wrap;html=1;shadow=0;fontFamily=Helvetica;fontSize=12;align=center;strokeWidth=1;spacing=6;spacingTop=-4;" vertex="1" parent="U1kovIyhHzkXZq7RobD8-130">
          <mxGeometry x="82.5" y="280" width="110" height="90" as="geometry" />
        </mxCell>
        <mxCell id="U1kovIyhHzkXZq7RobD8-112" value="Return path" style="rounded=1;whiteSpace=wrap;html=1;" vertex="1" parent="U1kovIyhHzkXZq7RobD8-130">
          <mxGeometry x="70" y="550" width="135" height="30" as="geometry" />
        </mxCell>
        <mxCell id="U1kovIyhHzkXZq7RobD8-127" style="edgeStyle=orthogonalEdgeStyle;rounded=0;orthogonalLoop=1;jettySize=auto;html=1;entryX=1;entryY=0.5;entryDx=0;entryDy=0;" edge="1" parent="U1kovIyhHzkXZq7RobD8-130" source="U1kovIyhHzkXZq7RobD8-120" target="U1kovIyhHzkXZq7RobD8-101">
          <mxGeometry relative="1" as="geometry">
            <Array as="points">
              <mxPoint x="270" y="505" />
              <mxPoint x="270" y="195" />
            </Array>
          </mxGeometry>
        </mxCell>
        <mxCell id="U1kovIyhHzkXZq7RobD8-120" value="Append to path" style="rounded=1;whiteSpace=wrap;html=1;fontSize=12;glass=0;strokeWidth=1;shadow=0;" vertex="1" parent="U1kovIyhHzkXZq7RobD8-130">
          <mxGeometry x="65" y="490" width="157.5" height="30" as="geometry" />
        </mxCell>
        <mxCell id="U1kovIyhHzkXZq7RobD8-126" style="edgeStyle=orthogonalEdgeStyle;rounded=0;orthogonalLoop=1;jettySize=auto;html=1;exitX=0.5;exitY=1;exitDx=0;exitDy=0;entryX=0.457;entryY=0.031;entryDx=0;entryDy=0;entryPerimeter=0;" edge="1" parent="U1kovIyhHzkXZq7RobD8-130" source="U1kovIyhHzkXZq7RobD8-94" target="U1kovIyhHzkXZq7RobD8-120">
          <mxGeometry relative="1" as="geometry" />
        </mxCell>
        <mxCell id="U1kovIyhHzkXZq7RobD8-131" value="" style="group" vertex="1" connectable="0" parent="WIyWlLk6GJQsqaUBKTNV-1">
          <mxGeometry x="80" y="520" width="270" height="730" as="geometry" />
        </mxCell>
        <mxCell id="U1kovIyhHzkXZq7RobD8-132" value="" style="rounded=0;html=1;jettySize=auto;orthogonalLoop=1;fontSize=11;endArrow=block;endFill=0;endSize=8;strokeWidth=1;shadow=0;labelBackgroundColor=none;edgeStyle=orthogonalEdgeStyle;entryX=0.5;entryY=0;entryDx=0;entryDy=0;" edge="1" parent="U1kovIyhHzkXZq7RobD8-131" source="U1kovIyhHzkXZq7RobD8-133" target="U1kovIyhHzkXZq7RobD8-139">
          <mxGeometry relative="1" as="geometry">
            <mxPoint x="145" y="60" as="targetPoint" />
          </mxGeometry>
        </mxCell>
        <mxCell id="U1kovIyhHzkXZq7RobD8-133" value="Input: Grid-map, Connectivity" style="rounded=1;whiteSpace=wrap;html=1;fontSize=12;glass=0;strokeWidth=1;shadow=0;" vertex="1" parent="U1kovIyhHzkXZq7RobD8-131">
          <mxGeometry x="85" width="120" height="40" as="geometry" />
        </mxCell>
        <mxCell id="U1kovIyhHzkXZq7RobD8-134" value="" style="edgeStyle=orthogonalEdgeStyle;rounded=0;orthogonalLoop=1;jettySize=auto;html=1;" edge="1" parent="U1kovIyhHzkXZq7RobD8-131" target="U1kovIyhHzkXZq7RobD8-137">
          <mxGeometry relative="1" as="geometry">
            <mxPoint x="145" y="270" as="sourcePoint" />
          </mxGeometry>
        </mxCell>
        <mxCell id="U1kovIyhHzkXZq7RobD8-135" value="True" style="edgeLabel;html=1;align=center;verticalAlign=middle;resizable=0;points=[];" vertex="1" connectable="0" parent="U1kovIyhHzkXZq7RobD8-134">
          <mxGeometry x="0.2088" y="1" relative="1" as="geometry">
            <mxPoint as="offset" />
          </mxGeometry>
        </mxCell>
        <mxCell id="U1kovIyhHzkXZq7RobD8-136" style="edgeStyle=orthogonalEdgeStyle;rounded=0;orthogonalLoop=1;jettySize=auto;html=1;exitX=0.5;exitY=1;exitDx=0;exitDy=0;entryX=0.5;entryY=0;entryDx=0;entryDy=0;" edge="1" parent="U1kovIyhHzkXZq7RobD8-131" source="U1kovIyhHzkXZq7RobD8-137" target="U1kovIyhHzkXZq7RobD8-146">
          <mxGeometry relative="1" as="geometry" />
        </mxCell>
        <mxCell id="U1kovIyhHzkXZq7RobD8-137" value="get first element q in queue and remove it from queue" style="rounded=1;whiteSpace=wrap;html=1;fontSize=12;glass=0;strokeWidth=1;shadow=0;" vertex="1" parent="U1kovIyhHzkXZq7RobD8-131">
          <mxGeometry x="60" y="300" width="170" height="40" as="geometry" />
        </mxCell>
        <mxCell id="U1kovIyhHzkXZq7RobD8-138" style="edgeStyle=orthogonalEdgeStyle;rounded=0;orthogonalLoop=1;jettySize=auto;html=1;exitX=0.5;exitY=1;exitDx=0;exitDy=0;entryX=0.5;entryY=0;entryDx=0;entryDy=0;" edge="1" parent="U1kovIyhHzkXZq7RobD8-131" source="U1kovIyhHzkXZq7RobD8-139" target="U1kovIyhHzkXZq7RobD8-141">
          <mxGeometry relative="1" as="geometry">
            <mxPoint x="145" y="140" as="targetPoint" />
          </mxGeometry>
        </mxCell>
        <mxCell id="U1kovIyhHzkXZq7RobD8-139" value="Initialize distance-map same as Grid-map" style="rounded=1;whiteSpace=wrap;html=1;" vertex="1" parent="U1kovIyhHzkXZq7RobD8-131">
          <mxGeometry x="60" y="60" width="170" height="60" as="geometry" />
        </mxCell>
        <mxCell id="U1kovIyhHzkXZq7RobD8-140" value="" style="edgeStyle=orthogonalEdgeStyle;rounded=0;orthogonalLoop=1;jettySize=auto;html=1;" edge="1" parent="U1kovIyhHzkXZq7RobD8-131" source="U1kovIyhHzkXZq7RobD8-141" target="U1kovIyhHzkXZq7RobD8-144">
          <mxGeometry relative="1" as="geometry" />
        </mxCell>
        <mxCell id="U1kovIyhHzkXZq7RobD8-141" value="Initialize queue with all obstacles" style="rounded=1;whiteSpace=wrap;html=1;fontSize=12;glass=0;strokeWidth=1;shadow=0;" vertex="1" parent="U1kovIyhHzkXZq7RobD8-131">
          <mxGeometry x="60" y="130" width="170" height="40" as="geometry" />
        </mxCell>
        <mxCell id="U1kovIyhHzkXZq7RobD8-142" style="edgeStyle=orthogonalEdgeStyle;rounded=0;orthogonalLoop=1;jettySize=auto;html=1;entryX=0;entryY=0.5;entryDx=0;entryDy=0;" edge="1" parent="U1kovIyhHzkXZq7RobD8-131" source="U1kovIyhHzkXZq7RobD8-144" target="U1kovIyhHzkXZq7RobD8-155">
          <mxGeometry relative="1" as="geometry">
            <mxPoint x="-30" y="730" as="targetPoint" />
            <Array as="points">
              <mxPoint y="235" />
              <mxPoint y="715" />
            </Array>
          </mxGeometry>
        </mxCell>
        <mxCell id="U1kovIyhHzkXZq7RobD8-143" value="False" style="edgeLabel;html=1;align=center;verticalAlign=middle;resizable=0;points=[];" vertex="1" connectable="0" parent="U1kovIyhHzkXZq7RobD8-142">
          <mxGeometry x="-0.8488" y="4" relative="1" as="geometry">
            <mxPoint as="offset" />
          </mxGeometry>
        </mxCell>
        <mxCell id="U1kovIyhHzkXZq7RobD8-144" value="While queue not empty" style="rhombus;whiteSpace=wrap;html=1;shadow=0;fontFamily=Helvetica;fontSize=12;align=center;strokeWidth=1;spacing=6;spacingTop=-4;" vertex="1" parent="U1kovIyhHzkXZq7RobD8-131">
          <mxGeometry x="100" y="190" width="90" height="90" as="geometry" />
        </mxCell>
        <mxCell id="U1kovIyhHzkXZq7RobD8-145" value="" style="edgeStyle=orthogonalEdgeStyle;rounded=0;orthogonalLoop=1;jettySize=auto;html=1;" edge="1" parent="U1kovIyhHzkXZq7RobD8-131" source="U1kovIyhHzkXZq7RobD8-146" target="U1kovIyhHzkXZq7RobD8-151">
          <mxGeometry relative="1" as="geometry" />
        </mxCell>
        <mxCell id="U1kovIyhHzkXZq7RobD8-146" value="For each Neighbour t of q" style="rhombus;whiteSpace=wrap;html=1;shadow=0;fontFamily=Helvetica;fontSize=12;align=center;strokeWidth=1;spacing=6;spacingTop=-4;" vertex="1" parent="U1kovIyhHzkXZq7RobD8-131">
          <mxGeometry x="90" y="360" width="110" height="90" as="geometry" />
        </mxCell>
        <mxCell id="U1kovIyhHzkXZq7RobD8-147" value="" style="edgeStyle=orthogonalEdgeStyle;rounded=0;orthogonalLoop=1;jettySize=auto;html=1;" edge="1" parent="U1kovIyhHzkXZq7RobD8-131" source="U1kovIyhHzkXZq7RobD8-151" target="U1kovIyhHzkXZq7RobD8-153">
          <mxGeometry relative="1" as="geometry" />
        </mxCell>
        <mxCell id="U1kovIyhHzkXZq7RobD8-148" value="yes" style="edgeLabel;html=1;align=center;verticalAlign=middle;resizable=0;points=[];" vertex="1" connectable="0" parent="U1kovIyhHzkXZq7RobD8-147">
          <mxGeometry x="0.5133" relative="1" as="geometry">
            <mxPoint as="offset" />
          </mxGeometry>
        </mxCell>
        <mxCell id="U1kovIyhHzkXZq7RobD8-149" style="edgeStyle=orthogonalEdgeStyle;rounded=0;orthogonalLoop=1;jettySize=auto;html=1;entryX=1;entryY=0.5;entryDx=0;entryDy=0;" edge="1" parent="U1kovIyhHzkXZq7RobD8-131" source="U1kovIyhHzkXZq7RobD8-151" target="U1kovIyhHzkXZq7RobD8-146">
          <mxGeometry relative="1" as="geometry">
            <Array as="points">
              <mxPoint x="270" y="515" />
              <mxPoint x="270" y="405" />
            </Array>
          </mxGeometry>
        </mxCell>
        <mxCell id="U1kovIyhHzkXZq7RobD8-150" value="No" style="edgeLabel;html=1;align=center;verticalAlign=middle;resizable=0;points=[];" vertex="1" connectable="0" parent="U1kovIyhHzkXZq7RobD8-149">
          <mxGeometry x="-0.0557" y="1" relative="1" as="geometry">
            <mxPoint as="offset" />
          </mxGeometry>
        </mxCell>
        <mxCell id="U1kovIyhHzkXZq7RobD8-151" value="if t in grid-map and distance-map(t) == 0" style="rhombus;whiteSpace=wrap;html=1;shadow=0;fontFamily=Helvetica;fontSize=12;align=center;strokeWidth=1;spacing=6;spacingTop=-4;" vertex="1" parent="U1kovIyhHzkXZq7RobD8-131">
          <mxGeometry x="70" y="470" width="150" height="90" as="geometry" />
        </mxCell>
        <mxCell id="U1kovIyhHzkXZq7RobD8-152" value="" style="edgeStyle=orthogonalEdgeStyle;rounded=0;orthogonalLoop=1;jettySize=auto;html=1;" edge="1" parent="U1kovIyhHzkXZq7RobD8-131" source="U1kovIyhHzkXZq7RobD8-153" target="U1kovIyhHzkXZq7RobD8-154">
          <mxGeometry relative="1" as="geometry" />
        </mxCell>
        <mxCell id="U1kovIyhHzkXZq7RobD8-153" value="distance-map(t) = distance-map(q) +1" style="rounded=1;whiteSpace=wrap;html=1;fontSize=12;glass=0;strokeWidth=1;shadow=0;" vertex="1" parent="U1kovIyhHzkXZq7RobD8-131">
          <mxGeometry x="40" y="590" width="210" height="40" as="geometry" />
        </mxCell>
        <mxCell id="U1kovIyhHzkXZq7RobD8-154" value="add t to queue" style="whiteSpace=wrap;html=1;rounded=1;glass=0;strokeWidth=1;shadow=0;" vertex="1" parent="U1kovIyhHzkXZq7RobD8-131">
          <mxGeometry x="87.5" y="650" width="115" height="30" as="geometry" />
        </mxCell>
        <mxCell id="U1kovIyhHzkXZq7RobD8-155" value="Return distance-map" style="rounded=1;whiteSpace=wrap;html=1;" vertex="1" parent="U1kovIyhHzkXZq7RobD8-131">
          <mxGeometry x="77.5" y="700" width="135" height="30" as="geometry" />
        </mxCell>
        <mxCell id="U1kovIyhHzkXZq7RobD8-191" value="" style="group" vertex="1" connectable="0" parent="WIyWlLk6GJQsqaUBKTNV-1">
          <mxGeometry x="110" y="2280" width="240" height="460" as="geometry" />
        </mxCell>
        <mxCell id="U1kovIyhHzkXZq7RobD8-156" style="edgeStyle=orthogonalEdgeStyle;rounded=0;orthogonalLoop=1;jettySize=auto;html=1;entryX=0.5;entryY=0;entryDx=0;entryDy=0;" edge="1" parent="U1kovIyhHzkXZq7RobD8-191" source="U1kovIyhHzkXZq7RobD8-23" target="U1kovIyhHzkXZq7RobD8-33">
          <mxGeometry relative="1" as="geometry" />
        </mxCell>
        <mxCell id="U1kovIyhHzkXZq7RobD8-23" value="Input: Grid-map, q_start ,q_goal, Connectivity" style="rounded=1;whiteSpace=wrap;html=1;fontSize=12;glass=0;strokeWidth=1;shadow=0;" vertex="1" parent="U1kovIyhHzkXZq7RobD8-191">
          <mxGeometry x="85" width="120" height="40" as="geometry" />
        </mxCell>
        <mxCell id="U1kovIyhHzkXZq7RobD8-24" value="" style="edgeStyle=orthogonalEdgeStyle;rounded=0;orthogonalLoop=1;jettySize=auto;html=1;" edge="1" parent="U1kovIyhHzkXZq7RobD8-191" target="U1kovIyhHzkXZq7RobD8-28">
          <mxGeometry relative="1" as="geometry">
            <mxPoint x="145" y="200" as="sourcePoint" />
          </mxGeometry>
        </mxCell>
        <mxCell id="U1kovIyhHzkXZq7RobD8-50" value="True" style="edgeLabel;html=1;align=center;verticalAlign=middle;resizable=0;points=[];" vertex="1" connectable="0" parent="U1kovIyhHzkXZq7RobD8-24">
          <mxGeometry x="0.2088" y="1" relative="1" as="geometry">
            <mxPoint as="offset" />
          </mxGeometry>
        </mxCell>
        <mxCell id="U1kovIyhHzkXZq7RobD8-187" style="edgeStyle=orthogonalEdgeStyle;rounded=0;orthogonalLoop=1;jettySize=auto;html=1;exitX=0.5;exitY=1;exitDx=0;exitDy=0;entryX=0.5;entryY=0;entryDx=0;entryDy=0;" edge="1" parent="U1kovIyhHzkXZq7RobD8-191" source="U1kovIyhHzkXZq7RobD8-28" target="U1kovIyhHzkXZq7RobD8-181">
          <mxGeometry relative="1" as="geometry" />
        </mxCell>
        <mxCell id="U1kovIyhHzkXZq7RobD8-28" value="Check neighbors" style="rounded=1;whiteSpace=wrap;html=1;fontSize=12;glass=0;strokeWidth=1;shadow=0;" vertex="1" parent="U1kovIyhHzkXZq7RobD8-191">
          <mxGeometry x="60" y="230" width="170" height="40" as="geometry" />
        </mxCell>
        <mxCell id="U1kovIyhHzkXZq7RobD8-38" value="" style="edgeStyle=orthogonalEdgeStyle;rounded=0;orthogonalLoop=1;jettySize=auto;html=1;" edge="1" parent="U1kovIyhHzkXZq7RobD8-191" source="U1kovIyhHzkXZq7RobD8-33" target="U1kovIyhHzkXZq7RobD8-37">
          <mxGeometry relative="1" as="geometry" />
        </mxCell>
        <mxCell id="U1kovIyhHzkXZq7RobD8-33" value="initialize path with q_start, q=q_start" style="rounded=1;whiteSpace=wrap;html=1;fontSize=12;glass=0;strokeWidth=1;shadow=0;" vertex="1" parent="U1kovIyhHzkXZq7RobD8-191">
          <mxGeometry x="60" y="60" width="170" height="40" as="geometry" />
        </mxCell>
        <mxCell id="U1kovIyhHzkXZq7RobD8-51" style="edgeStyle=orthogonalEdgeStyle;rounded=0;orthogonalLoop=1;jettySize=auto;html=1;entryX=0;entryY=0.5;entryDx=0;entryDy=0;" edge="1" parent="U1kovIyhHzkXZq7RobD8-191" source="U1kovIyhHzkXZq7RobD8-37" target="U1kovIyhHzkXZq7RobD8-54">
          <mxGeometry relative="1" as="geometry">
            <mxPoint x="-30" y="660" as="targetPoint" />
            <Array as="points">
              <mxPoint y="165" />
              <mxPoint y="450" />
              <mxPoint x="78" y="450" />
            </Array>
          </mxGeometry>
        </mxCell>
        <mxCell id="U1kovIyhHzkXZq7RobD8-53" value="False" style="edgeLabel;html=1;align=center;verticalAlign=middle;resizable=0;points=[];" vertex="1" connectable="0" parent="U1kovIyhHzkXZq7RobD8-51">
          <mxGeometry x="-0.8488" y="4" relative="1" as="geometry">
            <mxPoint as="offset" />
          </mxGeometry>
        </mxCell>
        <mxCell id="U1kovIyhHzkXZq7RobD8-37" value="While q != q_goal" style="rhombus;whiteSpace=wrap;html=1;shadow=0;fontFamily=Helvetica;fontSize=12;align=center;strokeWidth=1;spacing=6;spacingTop=-4;" vertex="1" parent="U1kovIyhHzkXZq7RobD8-191">
          <mxGeometry x="100" y="120" width="90" height="90" as="geometry" />
        </mxCell>
        <mxCell id="U1kovIyhHzkXZq7RobD8-54" value="Return path" style="rounded=1;whiteSpace=wrap;html=1;" vertex="1" parent="U1kovIyhHzkXZq7RobD8-191">
          <mxGeometry x="77.5" y="430" width="135" height="30" as="geometry" />
        </mxCell>
        <mxCell id="U1kovIyhHzkXZq7RobD8-189" value="" style="edgeStyle=orthogonalEdgeStyle;rounded=0;orthogonalLoop=1;jettySize=auto;html=1;" edge="1" parent="U1kovIyhHzkXZq7RobD8-191" source="U1kovIyhHzkXZq7RobD8-181" target="U1kovIyhHzkXZq7RobD8-188">
          <mxGeometry relative="1" as="geometry" />
        </mxCell>
        <mxCell id="U1kovIyhHzkXZq7RobD8-181" value="Set q = neighbor with minimum value" style="rounded=1;whiteSpace=wrap;html=1;glass=0;strokeWidth=1;shadow=0;" vertex="1" parent="U1kovIyhHzkXZq7RobD8-191">
          <mxGeometry x="77.5" y="310" width="135" height="40" as="geometry" />
        </mxCell>
        <mxCell id="U1kovIyhHzkXZq7RobD8-190" style="edgeStyle=orthogonalEdgeStyle;rounded=0;orthogonalLoop=1;jettySize=auto;html=1;entryX=1;entryY=0.5;entryDx=0;entryDy=0;" edge="1" parent="U1kovIyhHzkXZq7RobD8-191" source="U1kovIyhHzkXZq7RobD8-188" target="U1kovIyhHzkXZq7RobD8-37">
          <mxGeometry relative="1" as="geometry">
            <Array as="points">
              <mxPoint x="240" y="390" />
              <mxPoint x="240" y="165" />
            </Array>
          </mxGeometry>
        </mxCell>
        <mxCell id="U1kovIyhHzkXZq7RobD8-188" value="add q to path" style="rounded=1;whiteSpace=wrap;html=1;glass=0;strokeWidth=1;shadow=0;" vertex="1" parent="U1kovIyhHzkXZq7RobD8-191">
          <mxGeometry x="77.5" y="370" width="135" height="40" as="geometry" />
        </mxCell>
      </root>
    </mxGraphModel>
  </diagram>
</mxfile>
